<?xml version="1.0" encoding="UTF-8" standalone="no"?>
<!DOCTYPE svg PUBLIC "-//W3C//DTD SVG 1.1//EN" "http://www.w3.org/Graphics/SVG/1.1/DTD/svg11.dtd">
<svg width="100%" height="100%" viewBox="0 0 1000 629" version="1.1"
    xmlns="http://www.w3.org/2000/svg"
    xmlns:xlink="http://www.w3.org/1999/xlink" xml:space="preserve"
    xmlns:serif="http://www.serif.com/" style="fill-rule:evenodd;clip-rule:evenodd;stroke-linejoin:round;stroke-miterlimit:2;">
    <g transform="matrix(1,0,0,1,0,-185.728)">
        <g transform="matrix(1.197,0,0,1.197,-98.5013,-98.5013)">
            <path d="M157.594,606.01C172.636,598.488 193.157,600.523 208.291,603.765C221.438,607.357 231.818,613.256 239.11,618.479C247.234,624.293 251.521,629.268 251.521,629.268C270.61,627.636 282.096,623.82 287.079,621.105L290.774,619.498C331.342,605.932 354.074,583.922 361.552,580.069C395.864,556.959 425.382,543.034 449.064,534.958C465.447,527.936 487.269,519.794 512.536,513.375L512.463,507.534C512.463,454.408 530.2,408.335 565.682,369.311C589.695,342.83 617.618,324.501 649.435,314.322C657.49,302.013 674.608,291.281 710.122,292.527C824.326,296.539 865.176,390.233 865.176,390.233C824.125,348.933 793.913,351.144 793.913,351.144C844.871,382.182 849.82,424.952 849.82,424.952C845.428,414.105 830.745,396.237 790.938,385.947C752.27,375.954 760.207,415.36 701.482,409.206C654.517,404.287 643.441,347.521 643.441,347.521C643.441,347.521 642.279,342.433 642.733,335.35C640.703,341.758 638.817,353.083 643.663,367.142L644.917,370.071C647.156,375.971 650.672,382.24 655.817,388.778C647.19,393.537 625.549,406.375 617.391,419.492C615.671,422.262 613.625,424.755 611.408,426.989C599.055,438.057 562.249,434.938 558.512,434.319C579.81,438.057 585.787,454.889 587.455,464.687C589.215,482.111 584.741,505.371 584.741,505.371L587.146,505.649C602.19,509.455 607.95,519.344 608.739,531.924C609.65,534.403 610.471,536.878 611.188,539.204C613.326,543.503 613.814,546.969 613.814,546.969C613.814,546.969 624.55,561.281 620.077,583.646C619.517,586.45 617.55,589.638 614.692,592.985L616.535,595.191C618.468,597.45 620.486,599.656 622.595,601.811C635.448,614.922 657.872,624.798 665.896,630.862C671.209,635.405 676.079,639.979 679.994,644.347C683.771,651.977 685.87,661.354 682.249,671.31C682.249,671.31 688.994,656.136 701.419,646.648C709.756,641.794 721.358,639.681 731.633,637.22C733.998,636.784 736.33,636.29 738.627,635.729C743.15,634.912 747.287,634.479 750.681,634.633C764.477,635.267 776.075,623.142 781.775,615.836C786.859,626.142 792.458,633.729 798.055,639.312C806.166,646.237 818.773,654.254 834.167,654.916C821.677,651.906 813.302,642.686 813.302,642.686C813.302,642.686 776.1,604.472 785.569,572.462C807.933,496.874 847.485,540.817 859.37,502.688C870.104,468.249 857.95,436.74 850.754,427.514C850.754,427.514 885.316,453.183 886.716,512.836C886.716,512.836 903.734,487.775 888.498,431.573C888.498,431.573 949.211,513.797 895.584,614.706C880.711,642.696 864.703,653.131 850.797,655.537C814.434,690.63 768.706,708.174 713.607,708.174C654.48,708.174 606.173,688.132 568.688,648.051C564.029,643.068 559.659,637.986 555.575,632.792C552.68,634.954 549.62,637.181 546.405,639.448C546.08,644.671 545.463,650.363 544.551,656.289C543.225,664.935 529.765,692.804 533.733,698.82C537.611,704.703 572.201,703.436 587.204,710.792C599.89,717.015 606.875,724.076 606.015,725.354C605.155,726.626 595.027,723.199 582.059,720.959C566.608,718.299 520.612,729.28 513.177,720.068C505.24,710.232 515.426,668.334 516.755,659.683C509.536,663.938 510.76,662.092 502.448,666.52C505.128,652.082 503.566,640.354 502.441,632.399C502.069,640.044 498.986,661.642 494.775,673.618C491.786,682.123 470.75,709.067 475.301,717.871C482.479,731.762 527.008,753.69 525.223,756.243C523.438,758.794 463.021,747.043 452.796,729.011C447.671,719.979 453.541,699.769 459.951,686.073C451.213,689.764 452.224,689.108 442.693,692.286C447.874,680.257 450.558,666.395 446.979,652.082C446.089,659.291 442.771,676.375 438.296,686.926C435.128,694.397 414.551,716.944 418.534,724.004C425.647,736.612 470.043,759.541 468.193,762.184C466.343,764.825 402.591,752.854 392.86,735.723C389.401,729.634 394.669,714.201 399.568,703.967C363.34,709.777 332.032,711.568 287.304,710.673C228.415,709.707 181.717,687.902 142.57,650.344C102.385,611.793 82.29,564.891 82.29,509.65C82.29,472.509 91.687,438.012 110.479,406.159C129.27,374.306 155.092,349.445 187.949,331.583C191.711,329.539 195.522,327.613 199.385,325.8C199.317,322.725 199.406,319.525 199.665,316.192C206.122,233.121 311.588,234.586 341.282,264.647C380.273,304.124 417.321,272.33 429.881,237.451C429.881,237.451 407.173,390.42 275.014,394.844C257.316,395.432 215.64,385.688 203.038,347.856C203.04,355.003 204.325,363.485 208.029,372.996C208.786,374.945 209.648,376.935 210.617,378.966C209.849,381.754 208.963,384.495 207.982,387.175C197.48,415.848 175.748,438.24 163.912,448.901L160.354,452.022C149.69,429.514 137.044,426.922 137.044,426.922C149.624,438.424 155.06,458.704 157.405,474.07C157.371,490.637 155.013,511.791 153.245,525.347L152.163,533.297C132.162,523.854 121.618,528.865 121.618,528.865C136.881,530.32 151.794,540.918 162.734,550.937C174.235,564.967 181.805,580.477 185.941,590.374L187.188,593.438C164.133,595.775 157.594,606.01 157.594,606.01ZM223.273,296.452C227.242,300.153 238.042,296.563 250.051,290.032L254.591,288.055C258.066,286.65 264.509,283.826 272.481,282.081C279.906,280.458 289.006,279.687 297.9,280.69C310.396,282.098 322.611,286.135 331.201,288.701C337.955,291.205 342.488,292.458 343.276,291.245C344.063,290.032 340.871,286.355 335.172,281.539C327.429,275.806 314.927,268.455 300.76,264.46C290.413,261.54 278.913,260.923 269.298,261.981C258.663,263.149 250.208,266.176 245.671,268.021L240.235,270.769C226.085,280.697 219.305,292.751 223.273,296.452ZM452.188,507.391C442.66,498.019 441.443,491.872 448.883,480.689C458.054,466.903 474.432,454.099 481.987,440.795C484.417,436.52 489.383,423.667 492.744,420.246C496.263,416.661 499.809,420.075 500.287,423.937C501.77,435.936 495.463,451.293 488.804,460.997C485.171,466.296 468.037,486.872 467.123,491.527C469.753,496.477 496.399,507.88 501.984,510.526L468.387,520.234C462.74,516.294 457.11,512.237 452.188,507.391ZM395.811,514.333C392.901,494.71 422.51,442.467 430.673,444.961C435.798,446.526 432.449,454.238 431.406,457.292C427.188,469.608 415.452,498.219 417.425,508.694C418.472,514.251 445.058,523.466 450.247,525.441C439.668,529.325 429.313,533.321 419.056,538.007C411.407,533.432 397.384,524.929 395.811,514.333ZM347.123,545.073C344.384,526.539 373.761,472.849 382.073,475.393C387.157,476.944 383.987,484.689 382.989,487.779C379.086,499.878 367.466,529.152 368.94,538.941C371.999,543.498 390.409,548.262 395.496,549.803C386.438,554.866 377.43,559.994 368.541,565.354C361.455,561.588 348.544,554.699 347.123,545.073Z" style="fill:rgb(123,36,230);fill-rule:nonzero;"/>
        </g>
    </g>
</svg>
