<?xml version="1.0" encoding="UTF-8" standalone="no"?>
<!DOCTYPE svg PUBLIC "-//W3C//DTD SVG 1.1//EN" "http://www.w3.org/Graphics/SVG/1.1/DTD/svg11.dtd">
<svg width="100%" height="100%" viewBox="0 0 611 119" version="1.1"
    xmlns="http://www.w3.org/2000/svg"
    xmlns:xlink="http://www.w3.org/1999/xlink" xml:space="preserve"
    xmlns:serif="http://www.serif.com/" style="fill-rule:evenodd;clip-rule:evenodd;stroke-linejoin:round;stroke-miterlimit:2;">
    <g transform="matrix(1,0,0,1,0.000206495,-8.125e-05)">
        <g transform="matrix(1,0,0,1,210.562,-56.7527)">
            <g id="Logo---Purple" serif:id="Logo - Purple">
                <g id="SCORPION" transform="matrix(3.55668,0,0,3.55938,-185.16,162.953)">
                    <g>
                        <g transform="matrix(1,0,0,1,-1.82217,0)">
                            <path d="M165.672,-26.388L160.308,-26.388C159.912,-26.388 159.588,-26.064 159.588,-25.668L159.588,-12.96L151.128,-25.884C151.056,-26.172 150.768,-26.388 150.444,-26.388L145.08,-26.388C144.684,-26.388 144.36,-26.064 144.36,-25.668L144.36,-0.72C144.36,-0.324 144.684,0 145.08,0L150.444,0C150.84,0 151.164,-0.324 151.164,-0.72L151.164,-13.392L159.66,-0.396C159.804,-0.144 160.02,0 160.308,0L165.672,0C166.068,0 166.392,-0.324 166.392,-0.72L166.392,-25.668C166.392,-26.064 166.068,-26.388 165.672,-26.388Z" style="fill:rgb(123,36,230);fill-rule:nonzero;"/>
                        </g>
                        <g transform="matrix(1,0,0,1,-1.0933,0)">
                            <path d="M141.696,-18.72C141.048,-20.304 140.148,-21.708 139.032,-22.86C137.88,-23.976 136.548,-24.876 134.964,-25.488C133.416,-26.1 131.724,-26.388 129.924,-26.388C128.124,-26.388 126.432,-26.1 124.884,-25.488C123.336,-24.876 121.968,-23.976 120.852,-22.86C119.736,-21.708 118.836,-20.304 118.188,-18.72C117.576,-17.1 117.252,-15.3 117.252,-13.284C117.252,-11.34 117.576,-9.504 118.188,-7.884C118.836,-6.264 119.736,-4.824 120.852,-3.672C121.968,-2.52 123.336,-1.584 124.884,-0.936C126.432,-0.324 128.124,0 129.924,0C131.724,0 133.416,-0.324 135,-0.936C136.548,-1.584 137.88,-2.52 139.032,-3.672C140.148,-4.824 141.048,-6.264 141.696,-7.884C142.308,-9.504 142.632,-11.34 142.632,-13.284C142.632,-15.264 142.308,-17.1 141.696,-18.72ZM132.3,-6.804C131.58,-6.48 130.788,-6.3 129.924,-6.3C129.06,-6.3 128.268,-6.48 127.548,-6.804C126.828,-7.164 126.216,-7.632 125.712,-8.244C125.172,-8.856 124.776,-9.576 124.488,-10.44C124.164,-11.304 124.02,-12.276 124.02,-13.284C124.02,-14.292 124.164,-15.228 124.452,-16.056C124.74,-16.92 125.136,-17.64 125.676,-18.216C126.18,-18.828 126.828,-19.296 127.548,-19.656C128.268,-19.98 129.06,-20.16 129.924,-20.16C130.788,-20.16 131.616,-19.98 132.336,-19.656C133.056,-19.296 133.668,-18.828 134.172,-18.252C134.712,-17.64 135.108,-16.92 135.396,-16.056C135.684,-15.228 135.864,-14.292 135.864,-13.284C135.864,-12.276 135.684,-11.304 135.396,-10.44C135.108,-9.576 134.676,-8.856 134.172,-8.244C133.632,-7.632 133.02,-7.164 132.3,-6.804Z" style="fill:rgb(123,36,230);fill-rule:nonzero;"/>
                        </g>
                        <g transform="matrix(1,0,0,0.958632,-0.728869,-1.42109e-14)">
                            <path d="M115.308,-27.462L109.116,-27.462C108.864,-27.462 108.684,-27.282 108.684,-27.03L108.684,-0.432C108.684,-0.18 108.864,0 109.116,0L115.308,0C115.56,0 115.74,-0.18 115.74,-0.432L115.74,-27.03C115.74,-27.282 115.56,-27.462 115.308,-27.462Z" style="fill:rgb(123,36,230);fill-rule:nonzero;"/>
                        </g>
                        <g transform="matrix(1,0,0,1,-0.364434,0)">
                            <path d="M106.416,-21.924C105.912,-23.004 105.192,-23.868 104.292,-24.516C103.428,-25.2 102.384,-25.668 101.196,-25.956C100.044,-26.244 98.784,-26.388 97.488,-26.388L88.74,-26.388C88.524,-26.388 88.344,-26.208 88.344,-25.956L88.344,-0.396C88.344,-0.18 88.524,0 88.74,0L94.716,0C94.932,0 95.112,-0.18 95.112,-0.396L95.112,-9.396L97.344,-9.396C98.604,-9.396 99.828,-9.54 100.98,-9.828C102.168,-10.152 103.248,-10.62 104.148,-11.304C105.084,-11.988 105.804,-12.852 106.38,-13.968C106.92,-15.048 107.172,-16.416 107.172,-17.964C107.172,-19.512 106.92,-20.844 106.416,-21.924ZM100.62,-17.928C100.62,-17.424 100.512,-16.956 100.332,-16.632C100.116,-16.272 99.864,-16.02 99.54,-15.804C99.216,-15.588 98.784,-15.444 98.352,-15.336C97.884,-15.264 97.416,-15.192 96.912,-15.192L95.112,-15.192L95.112,-20.484L96.984,-20.484C97.488,-20.484 97.956,-20.448 98.424,-20.376C98.856,-20.34 99.252,-20.196 99.576,-20.016C99.9,-19.8 100.152,-19.584 100.332,-19.224C100.512,-18.9 100.62,-18.468 100.62,-17.928Z" style="fill:rgb(123,36,230);fill-rule:nonzero;"/>
                        </g>
                        <g transform="matrix(0.999068,0,0,0.999068,0.426157,-0.0246019)">
                            <path d="M86.58,-0.648L80.604,-11.124C82.008,-11.664 83.124,-12.492 83.952,-13.608C84.888,-14.868 85.356,-16.416 85.356,-18.252C85.356,-19.764 85.068,-21.06 84.528,-22.104C83.988,-23.148 83.232,-24.012 82.332,-24.66C81.396,-25.272 80.352,-25.74 79.236,-25.992C78.12,-26.244 76.932,-26.388 75.78,-26.388L66.672,-26.388C66.42,-26.388 66.204,-26.208 66.204,-25.956L66.204,-0.432C66.204,-0.216 66.42,0 66.672,0L72.288,0C72.54,0 72.72,-0.216 72.72,-0.432L72.72,-10.116L73.98,-10.116L79.056,-0.252C79.128,-0.108 79.272,0 79.452,0L86.184,0C86.364,0 86.508,-0.108 86.58,-0.216C86.652,-0.36 86.652,-0.54 86.58,-0.648ZM78.84,-18.432C78.84,-17.856 78.732,-17.388 78.516,-17.064C78.264,-16.704 78.012,-16.452 77.652,-16.236C77.292,-16.056 76.86,-15.912 76.428,-15.84C75.96,-15.768 75.492,-15.732 75.024,-15.732L72.684,-15.732L72.684,-20.88L75.384,-20.88C75.78,-20.88 76.212,-20.844 76.644,-20.772C77.076,-20.736 77.436,-20.592 77.76,-20.412C78.084,-20.232 78.336,-20.016 78.516,-19.692C78.732,-19.368 78.84,-18.972 78.84,-18.432Z" style="fill:rgb(123,36,230);fill-rule:nonzero;"/>
                        </g>
                        <g transform="matrix(1,0,0,1,-6.20614,0)">
                            <path d="M15.48,-14.58C14.724,-15.156 13.86,-15.66 12.924,-16.02C12.06,-16.344 11.232,-16.668 10.44,-16.92C9.9,-17.1 9.432,-17.28 9,-17.46C8.604,-17.604 8.28,-17.784 7.992,-17.928C7.776,-18.072 7.632,-18.252 7.524,-18.396C7.416,-18.576 7.38,-18.756 7.38,-19.044C7.38,-19.368 7.452,-19.62 7.56,-19.764C7.704,-20.016 7.884,-20.16 8.1,-20.304C8.352,-20.448 8.604,-20.556 8.892,-20.592C9.216,-20.664 9.54,-20.7 9.864,-20.7C10.476,-20.7 11.124,-20.52 11.808,-20.196C12.456,-19.872 12.996,-19.44 13.428,-18.9C13.536,-18.72 13.752,-18.612 13.968,-18.612C14.22,-18.576 14.436,-18.684 14.58,-18.864L18.144,-22.788C18.288,-22.968 18.36,-23.148 18.36,-23.364C18.36,-23.544 18.252,-23.76 18.108,-23.904C17.028,-24.948 15.732,-25.74 14.256,-26.28C12.816,-26.82 11.376,-27.108 9.972,-27.108C8.82,-27.108 7.668,-26.928 6.516,-26.64C5.364,-26.316 4.32,-25.848 3.384,-25.164C2.448,-24.48 1.692,-23.616 1.116,-22.536C0.504,-21.456 0.216,-20.16 0.216,-18.684C0.216,-17.496 0.396,-16.452 0.792,-15.588C1.188,-14.724 1.692,-13.968 2.304,-13.356C2.916,-12.78 3.636,-12.276 4.428,-11.916C5.148,-11.556 5.904,-11.232 6.696,-10.98C7.452,-10.728 8.136,-10.512 8.712,-10.296C9.252,-10.08 9.72,-9.864 10.08,-9.648C10.404,-9.432 10.656,-9.216 10.8,-8.964C10.944,-8.784 10.98,-8.568 10.98,-8.244C10.98,-7.92 10.944,-7.596 10.8,-7.38C10.692,-7.164 10.548,-6.984 10.368,-6.84C10.152,-6.696 9.864,-6.588 9.576,-6.516C9.252,-6.444 8.892,-6.372 8.532,-6.372C7.74,-6.372 6.912,-6.624 6.12,-7.056C5.292,-7.488 4.608,-8.028 4.104,-8.676C3.96,-8.856 3.744,-8.964 3.528,-8.964C3.312,-8.964 3.096,-8.892 2.952,-8.712L-0.72,-4.824C-1.008,-4.5 -1.008,-4.032 -0.72,-3.744C0.36,-2.52 1.764,-1.584 3.42,-0.936C5.076,-0.324 6.768,0 8.532,0C9.72,0 10.908,-0.144 12.06,-0.504C13.212,-0.864 14.256,-1.404 15.192,-2.124C16.092,-2.844 16.848,-3.78 17.388,-4.896C17.928,-6.012 18.18,-7.344 18.18,-8.856C18.18,-10.224 17.928,-11.376 17.388,-12.312C16.884,-13.212 16.236,-13.968 15.48,-14.58Z" style="fill:rgb(123,36,230);fill-rule:nonzero;"/>
                        </g>
                    </g>
                </g>
                <g transform="matrix(1.10535,0,0,1.10535,-221.135,55.7856)">
                    <path d="M88.732,76.065C91.801,74.531 95.988,74.946 99.075,75.607C101.758,76.341 103.875,77.544 105.363,78.609C107.021,79.796 107.895,80.811 107.895,80.811C111.79,80.478 114.133,79.699 115.149,79.145L115.903,78.817C124.18,76.05 128.817,71.56 130.343,70.773C137.343,66.059 143.365,63.218 148.196,61.57C151.539,60.138 155.991,58.477 161.146,57.167L161.13,55.976C161.13,45.137 164.749,35.738 171.987,27.776C176.887,22.374 182.583,18.635 189.074,16.558C190.718,14.047 194.21,11.857 201.455,12.112C224.754,12.93 233.088,32.045 233.088,32.045C224.713,23.619 218.549,24.07 218.549,24.07C228.945,30.402 229.955,39.128 229.955,39.128C229.059,36.915 226.063,33.269 217.942,31.17C210.054,29.132 211.673,37.171 199.692,35.915C190.111,34.912 187.852,23.331 187.852,23.331C187.852,23.331 187.614,22.293 187.707,20.848C187.293,22.155 186.908,24.466 187.896,27.334L188.152,27.932C188.609,29.135 189.327,30.414 190.376,31.748C188.616,32.719 184.201,35.338 182.537,38.014C182.186,38.579 181.769,39.088 181.316,39.543C178.796,41.801 171.287,41.165 170.525,41.039C174.87,41.801 176.089,45.235 176.43,47.234C176.789,50.789 175.876,55.534 175.876,55.534L176.366,55.591C179.436,56.367 180.611,58.385 180.771,60.951C180.958,61.457 181.125,61.962 181.271,62.436C181.708,63.313 181.807,64.02 181.807,64.02C181.807,64.02 183.997,66.94 183.085,71.503C182.971,72.075 182.569,72.726 181.986,73.408L182.362,73.858C182.756,74.319 183.168,74.769 183.599,75.209C186.221,77.884 190.795,79.898 192.433,81.136C193.516,82.062 194.51,82.996 195.309,83.887C196.079,85.443 196.507,87.356 195.769,89.388C195.769,89.388 197.145,86.292 199.68,84.356C201.38,83.366 203.748,82.935 205.844,82.433C206.326,82.344 206.802,82.243 207.271,82.129C208.193,81.962 209.037,81.874 209.729,81.905C212.544,82.034 214.91,79.561 216.073,78.07C217.11,80.173 218.252,81.721 219.395,82.859C221.049,84.272 223.621,85.908 226.762,86.043C224.213,85.429 222.505,83.548 222.505,83.548C222.505,83.548 214.915,75.752 216.847,69.222C221.41,53.801 229.479,62.766 231.903,54.987C234.093,47.961 231.614,41.533 230.146,39.65C230.146,39.65 237.197,44.887 237.482,57.057C237.482,57.057 240.954,51.944 237.846,40.478C237.846,40.478 250.232,57.253 239.292,77.84C236.257,83.55 232.991,85.679 230.154,86.17C222.736,93.329 213.407,96.908 202.166,96.908C190.104,96.908 180.249,92.819 172.601,84.643C171.65,83.626 170.759,82.589 169.926,81.529C169.335,81.971 168.711,82.425 168.055,82.888C167.988,83.953 167.863,85.114 167.677,86.323C167.406,88.087 164.66,93.772 165.47,95C166.261,96.2 173.317,95.941 176.378,97.442C178.966,98.712 180.392,100.152 180.216,100.413C180.041,100.673 177.975,99.974 175.329,99.517C172.177,98.974 162.793,101.213 161.276,99.335C159.657,97.328 161.735,88.78 162.006,87.016C160.533,87.884 160.783,87.507 159.087,88.41C159.634,85.465 159.315,83.072 159.086,81.449C159.01,83.009 158.381,87.415 157.522,89.858C156.912,91.594 152.621,97.091 153.549,98.887C155.013,101.72 164.098,106.194 163.733,106.714C163.369,107.235 151.043,104.837 148.958,101.159C147.912,99.316 149.109,95.193 150.417,92.399C148.635,93.152 148.841,93.019 146.896,93.667C147.954,91.213 148.501,88.385 147.771,85.465C147.589,86.936 146.913,90.421 146,92.573C145.353,94.098 141.155,98.697 141.968,100.138C143.419,102.709 152.476,107.387 152.099,107.926C151.721,108.465 138.715,106.023 136.73,102.528C136.024,101.286 137.099,98.138 138.099,96.05C130.707,97.235 124.32,97.601 115.195,97.418C103.181,97.221 93.654,92.772 85.668,85.11C77.469,77.245 73.37,67.677 73.37,56.407C73.37,48.83 75.287,41.792 79.121,35.294C82.954,28.795 88.222,23.724 94.925,20.08C95.693,19.663 96.47,19.269 97.258,18.9C97.245,18.272 97.263,17.62 97.315,16.939C98.633,-0.008 120.149,0.291 126.208,6.424C134.162,14.478 141.72,7.991 144.283,0.875C144.283,0.875 139.65,32.083 112.688,32.985C109.078,33.105 100.575,31.118 98.003,23.399C98.004,24.857 98.266,26.588 99.022,28.528C99.176,28.926 99.352,29.332 99.55,29.746C99.393,30.315 99.212,30.874 99.012,31.421C96.87,37.27 92.436,41.839 90.022,44.014L89.295,44.65C87.12,40.059 84.54,39.53 84.54,39.53C87.106,41.876 88.215,46.014 88.694,49.148C88.687,52.528 88.206,56.844 87.845,59.609L87.625,61.231C83.544,59.305 81.393,60.327 81.393,60.327C84.507,60.624 87.549,62.786 89.781,64.83C92.127,67.692 93.672,70.856 94.516,72.876L94.77,73.501C90.066,73.978 88.732,76.065 88.732,76.065ZM102.132,12.913C102.942,13.667 105.146,12.935 107.595,11.603L108.521,11.199C109.23,10.913 110.545,10.336 112.171,9.98C113.686,9.649 115.542,9.492 117.357,9.697C119.906,9.984 122.398,10.808 124.151,11.331C125.529,11.842 126.454,12.098 126.614,11.85C126.775,11.603 126.124,10.853 124.961,9.87C123.381,8.7 120.831,7.201 117.94,6.386C115.83,5.79 113.483,5.664 111.522,5.88C109.352,6.118 107.627,6.736 106.702,7.112L105.593,7.673C102.706,9.698 101.323,12.157 102.132,12.913ZM148.833,55.946C146.89,54.034 146.642,52.78 148.159,50.499C150.03,47.686 153.372,45.074 154.913,42.36C155.409,41.488 156.422,38.866 157.107,38.168C157.825,37.436 158.549,38.133 158.646,38.921C158.949,41.369 157.662,44.502 156.304,46.481C155.563,47.562 152.067,51.76 151.88,52.71C152.417,53.72 157.853,56.046 158.993,56.586L152.138,58.566C150.986,57.763 149.838,56.935 148.833,55.946ZM137.332,57.362C136.738,53.359 142.779,42.701 144.444,43.21C145.49,43.529 144.807,45.103 144.594,45.726C143.733,48.238 141.339,54.075 141.742,56.212C141.955,57.346 147.379,59.226 148.438,59.629C146.279,60.421 144.167,61.236 142.074,62.192C140.514,61.259 137.653,59.524 137.332,57.362ZM127.399,63.634C126.84,59.853 132.833,48.899 134.529,49.418C135.566,49.735 134.92,51.315 134.716,51.945C133.92,54.414 131.549,60.386 131.85,62.383C132.474,63.312 136.23,64.284 137.268,64.599C135.42,65.632 133.582,66.678 131.769,67.771C130.323,67.003 127.689,65.598 127.399,63.634Z" style="fill:rgb(123,36,230);fill-rule:nonzero;"/>
                </g>
            </g>
        </g>
    </g>
</svg>
